<svg width="151" height="40" viewBox="0 0 151 40" fill="none" xmlns="http://www.w3.org/2000/svg">
<g id="Layer_1" clip-path="url(#clip0_4733_1965)">
<g id="2418041271344">
<path id="Vector" fill-rule="evenodd" clip-rule="evenodd" d="M14.606 38.98L5.69971 37.4437V2.06263L14.606 0.526367V38.98Z" fill="#1C1C1C"/>
<path id="Vector_2" fill-rule="evenodd" clip-rule="evenodd" d="M20.1172 37.8824L16.2399 37.286C14.8568 24.8372 15.587 13.0013 17.6601 1.55488L20.1172 1.15601V37.8824Z" fill="#1C1C1C"/>
<path id="Vector_3" fill-rule="evenodd" clip-rule="evenodd" d="M24.9635 35.2214L21.6484 34.7112C20.4657 24.0663 21.0904 13.9458 22.8627 4.15638L24.9635 3.81531V35.2214Z" fill="#1C1C1C"/>
<path id="Vector_4" fill-rule="evenodd" clip-rule="evenodd" d="M28.4909 29.9372L26.2911 29.599C25.5044 22.5363 25.9209 15.8214 27.0967 9.32716L28.4909 9.1012V29.9372Z" fill="#1C1C1C"/>
</g>
<g id="2418041269856">
<path id="Vector_5" d="M139.305 15.841L139.298 12.3917L137.948 12.3865V12.0142H141.056L141.061 12.3917L139.705 12.3865L139.71 15.841H139.305Z" fill="#1C1C1C"/>
<path id="1" d="M141.562 15.841V12.0142H142.14L143.415 14.7317L144.687 12.0142H145.264V15.841H144.874V12.4951L143.41 15.5682L141.948 12.5016V15.841H141.562Z" fill="#1C1C1C"/>
<path id="Vector_6" d="M45.9128 28.4527C44.8519 28.4623 43.8077 28.1813 42.8885 27.639C41.9692 27.0966 41.2083 26.3126 40.6845 25.368C40.144 24.3819 39.8691 23.2665 39.8876 22.1359C39.8746 21.0375 40.1452 19.955 40.6721 18.9981C41.199 18.0412 41.9635 17.2438 42.8882 16.6865C43.8183 16.1248 44.881 15.8346 45.9608 15.8475C46.6042 15.8614 47.2422 15.9703 47.8552 16.1707C48.4637 16.3722 49.0342 16.6782 49.5424 17.0757V11.4596L51.8876 11.0032L51.8636 28.2627H49.5714V27.0862C48.5544 27.9972 47.3336 28.4532 45.909 28.454L45.9128 28.4527ZM46.2185 26.3648C46.8669 26.3717 47.5096 26.2396 48.1052 25.9769C48.6641 25.7301 49.1582 25.3518 49.5474 24.8729V19.3757C49.1433 18.9171 48.6475 18.5529 48.0938 18.3078C47.5034 18.0404 46.864 17.9051 46.2185 17.9109C45.5023 17.9019 44.7972 18.0928 44.1789 18.4629C43.5748 18.8253 43.0733 19.3426 42.724 19.9639C42.3594 20.6177 42.1732 21.3598 42.1848 22.1126C42.1751 22.8711 42.357 23.6192 42.7127 24.2846C43.0538 24.9209 43.5558 25.4514 44.1663 25.8205C44.7862 26.1968 45.4981 26.3843 46.2185 26.3609V26.3648Z" fill="#1C1C1C"/>
<path id="1 0" d="M60.3335 28.5005C59.2329 28.5157 58.1483 28.23 57.1914 27.6731C56.2611 27.1291 55.4884 26.3421 54.9523 25.3925C54.3941 24.4121 54.1065 23.295 54.1201 22.1603C54.1231 21.0386 54.414 19.9374 54.9637 18.967C55.5024 18.0191 56.2721 17.2306 57.1977 16.6787C58.1531 16.1203 59.2341 15.8267 60.3341 15.8267C61.4342 15.8267 62.5152 16.1203 63.4705 16.6787C64.3904 17.2377 65.1569 18.0263 65.6982 18.9709C66.2547 19.9389 66.5498 21.041 66.5532 22.1642C66.5655 23.279 66.2875 24.377 65.7476 25.3452C65.2078 26.3135 64.4257 27.117 63.4819 27.6731C62.525 28.23 61.4404 28.5157 60.3398 28.5005H60.3335ZM60.3335 26.4125C61.04 26.405 61.7319 26.206 62.339 25.8359C62.9366 25.4728 63.4267 24.9504 63.7572 24.3246C64.1063 23.6613 64.2837 22.9176 64.2724 22.1642C64.269 21.4097 64.0838 20.6676 63.7332 20.0039C63.3969 19.3717 62.9038 18.8415 62.3036 18.4667C61.7056 18.0864 61.0147 17.8869 60.3108 17.8914C59.614 17.9002 58.9328 18.1036 58.3407 18.4796C57.7494 18.8528 57.2643 19.3785 56.9338 20.0039C56.5838 20.6678 56.3986 21.4097 56.3946 22.1642C56.3832 22.9192 56.5652 23.664 56.9224 24.3246C57.2591 24.9499 57.7476 25.4758 58.3407 25.8514C58.9393 26.2289 59.6305 26.4244 60.3335 26.4151V26.4125Z" fill="#1C1C1C"/>
<path id="2" d="M74.3795 28.4772C73.2854 28.5097 72.2045 28.2266 71.2601 27.6601C69.8603 26.7813 68.8482 25.3806 68.4372 23.753C68.0261 22.1254 68.2481 20.398 69.0564 18.9347C69.5906 17.9962 70.3489 17.2119 71.2601 16.6554C72.2029 16.0814 73.2827 15.786 74.3795 15.8021C75.2764 15.8007 76.1647 15.9804 76.9937 16.3309C77.8091 16.6683 78.5474 17.175 79.162 17.819L77.7084 19.4751C77.2835 18.9846 76.7647 18.5886 76.1841 18.3116C75.6344 18.0491 75.0325 17.9217 74.4262 17.9392C73.7313 17.9117 73.0445 18.1001 72.4561 18.4796C71.8751 18.8544 71.397 19.3745 71.0669 19.991C70.7276 20.6539 70.5503 21.3912 70.5503 22.1397C70.5503 22.8881 70.7276 23.6254 71.0669 24.2884C71.3942 24.9179 71.8821 25.4447 72.4788 25.8127C73.0802 26.1825 73.7702 26.3736 74.4717 26.3647C75.0617 26.3691 75.6456 26.2421 76.1829 25.9924C76.7435 25.7235 77.2521 25.3535 77.6844 24.8999L79.114 26.4358C78.498 27.0828 77.7615 27.5968 76.948 27.9474C76.1346 28.2981 75.2608 28.4782 74.3782 28.4772H74.3795Z" fill="#1C1C1C"/>
<path id="3" d="M85.6131 28.5005C84.7677 28.5162 83.9324 28.3097 83.1871 27.9006C82.4871 27.513 81.9126 26.9249 81.534 26.2083C81.1322 25.4373 80.9301 24.5738 80.9468 23.7001V16.0426H83.2452L83.2692 23.2916C83.2692 24.2526 83.5386 25.0128 84.0775 25.5722C84.6163 26.1316 85.3395 26.4199 86.2471 26.4371C86.8407 26.4449 87.4262 26.2957 87.9469 26.004C88.4515 25.7198 88.8753 25.3064 89.177 24.8042L89.201 16.0426H91.5222L91.4995 28.2613H89.1745V27.015C88.2484 28.0079 87.0604 28.5039 85.6106 28.5031L85.6131 28.5005Z" fill="#1C1C1C"/>
<path id="4" d="M94.2866 28.2613V16.0426H96.6318V17.2191C97.5217 16.2753 98.6394 15.8013 99.9848 15.797C100.742 15.7832 101.49 15.9736 102.153 16.349C102.774 16.7046 103.296 17.2174 103.669 17.8384C104.129 17.1888 104.736 16.6636 105.439 16.308C106.141 15.9523 106.918 15.7769 107.701 15.797C108.518 15.7774 109.324 15.9851 110.035 16.3981C110.7 16.7992 111.244 17.3809 111.606 18.0788C112 18.848 112.198 19.7068 112.18 20.5753V28.2574H109.833V20.9839C109.833 20.0237 109.587 19.2674 109.094 18.7149C108.601 18.1624 107.933 17.8866 107.089 17.8875C106.539 17.8801 105.998 18.0205 105.519 18.2947C105.017 18.6002 104.597 19.0296 104.299 19.5436C104.331 19.7103 104.354 19.8786 104.37 20.0478C104.385 20.2202 104.392 20.396 104.392 20.5753V28.2574H102.071V20.9839C102.071 20.0237 101.825 19.2674 101.332 18.7149C100.84 18.1624 100.172 17.8866 99.3281 17.8875C98.7976 17.8795 98.2736 18.0075 97.8038 18.2598C97.3292 18.5271 96.9266 18.9104 96.6318 19.3756V28.2574L94.2866 28.2613Z" fill="#1C1C1C"/>
<path id="5" d="M118.649 28.4773C117.867 28.4932 117.091 28.3334 116.375 28.0093C115.753 27.7255 115.218 27.2731 114.828 26.7009C114.451 26.129 114.254 25.4519 114.265 24.7616C114.265 23.6093 114.695 22.7013 115.555 22.0376C116.414 21.374 117.593 21.0417 119.091 21.0408C120.213 21.0301 121.325 21.2673 122.35 21.7364V20.4435C122.35 19.5635 122.104 18.9072 121.611 18.4745C121.119 18.0418 120.396 17.8264 119.442 17.8281C118.862 17.8348 118.287 17.9218 117.73 18.0867C117.046 18.2884 116.38 18.5479 115.738 18.8624L114.87 17.0627C115.681 16.6659 116.527 16.3482 117.396 16.1138C118.17 15.9152 118.965 15.8145 119.764 15.8138C121.312 15.8138 122.512 16.1901 123.363 16.9425C124.214 17.6949 124.64 18.7671 124.641 20.1591V28.273H122.354V27.2168C121.843 27.637 121.263 27.9617 120.641 28.1761C119.998 28.3898 119.325 28.4954 118.649 28.4889V28.4773ZM116.514 24.7086C116.511 24.9927 116.576 25.2732 116.705 25.5248C116.834 25.7763 117.023 25.9908 117.253 26.1489C117.746 26.5161 118.391 26.7001 119.188 26.7009C119.774 26.7077 120.358 26.6101 120.912 26.4126C121.444 26.2144 121.934 25.9128 122.354 25.5244V23.4559C121.912 23.1888 121.433 22.9906 120.934 22.8676C120.392 22.7427 119.837 22.6824 119.281 22.6879C118.421 22.6879 117.745 22.8681 117.253 23.2283C117.018 23.3908 116.826 23.6119 116.697 23.8709C116.568 24.1298 116.505 24.4181 116.514 24.7086Z" fill="#1C1C1C"/>
<path id="6" d="M127.348 28.2613L127.372 16.0426H129.688V17.2915C130.614 16.2986 131.81 15.8022 133.276 15.8022C134.118 15.7859 134.95 15.993 135.69 16.4033C136.383 16.792 136.952 17.3751 137.332 18.084C137.734 18.8517 137.944 19.7095 137.942 20.5805L137.918 28.2626H135.623L135.601 20.9891C135.616 20.0125 135.354 19.2485 134.815 18.6969C134.276 18.1452 133.545 17.8772 132.623 17.8927C132.036 17.8834 131.456 18.0233 130.934 18.2999C130.429 18.5774 130.001 18.9824 129.692 19.4764L129.668 28.2678L127.348 28.2613Z" fill="#1C1C1C"/>
</g>
</g>
<defs>
<clipPath id="clip0_4733_1965">
<rect width="151" height="40" fill="white"/>
</clipPath>
</defs>
</svg>
